<svg aria-hidden="true" style="position: absolute; width: 0; height: 0; overflow: hidden;" version="1.1" xmlns="http://www.w3.org/2000/svg" xmlns:xlink="http://www.w3.org/1999/xlink">
<defs>
<symbol id="icon-logo" viewBox="0 0 32 32">
<path fill="#f6f6f6" style="fill: var(--color1, #f6f6f6)" d="M0 0l16.343 16.172 15.657 15.828v-32h-32z"></path>
<path fill="#f6f6f6" style="fill: var(--color1, #f6f6f6)" d="M4.457 4.228l11.943 11.829 11.257 11.485h-23.2v-23.315z"></path>
<path fill="#4f2ee8" style="fill: var(--color2, #4f2ee8)" d="M27.733 27.619l-11.944-11.829-11.256-11.485h23.2v23.315z"></path>
<path fill="#4f2ee8" style="fill: var(--color2, #4f2ee8)" d="M9.256 9.028l13.6 13.601h-13.6v-13.6z"></path>
<path fill="#f6f6f6" style="fill: var(--color1, #f6f6f6)" d="M9.256 9.028l13.6 13.601v-13.6h-13.6z"></path>
</symbol>
<symbol id="icon-x-close" viewBox="0 0 32 32">
<path stroke-linejoin="round" stroke-linecap="round" stroke-miterlimit="4" stroke-width="3.3333" d="M24 8l-16 16M8 8l16 16"></path>
</symbol>
<symbol id="icon-trash" viewBox="0 0 32 32">
<path fill="none" stroke="#fff" style="stroke: var(--color1, #fff)" stroke-linejoin="round" stroke-linecap="round" stroke-miterlimit="4" stroke-width="2" d="M12 4h8M4 8h24M25.334 8l-0.936 14.026c-0.14 2.104-0.21 3.156-0.664 3.954-0.406 0.703-0.997 1.259-1.709 1.61l-0.023 0.010c-0.826 0.4-1.88 0.4-3.99 0.4h-4.024c-2.11 0-3.164 0-3.99-0.4-0.735-0.361-1.326-0.917-1.722-1.601l-0.010-0.019c-0.454-0.798-0.524-1.85-0.664-3.954l-0.936-14.026M13.334 14v6.666M18.666 14v6.666"></path>
</symbol>
<symbol id="icon-dubble-angle" viewBox="0 0 41 32">
<path d="M17.868 16.945c0.242-0.242 0.392-0.576 0.392-0.945s-0.15-0.704-0.392-0.945l-0-0-6.119-6.109c-0.264-0.244-0.428-0.592-0.428-0.979 0-0.737 0.597-1.334 1.334-1.334 0.384 0 0.729 0.162 0.973 0.421l0.001 0.001 6.121 6.119c0.723 0.724 1.169 1.723 1.169 2.826s-0.447 2.103-1.169 2.826l-6.121 6.121c-0.241 0.239-0.573 0.387-0.94 0.387-0.737 0-1.334-0.597-1.334-1.334 0-0.37 0.151-0.705 0.394-0.947l0-0 6.119-6.106z"></path>
<path d="M26.595 16.945c0.242-0.242 0.392-0.576 0.392-0.945s-0.15-0.704-0.392-0.945l-0-0-6.119-6.109c-0.243-0.242-0.393-0.576-0.393-0.945 0-0.736 0.597-1.333 1.333-1.333 0.367 0 0.699 0.148 0.94 0.388l6.121 6.119c0.723 0.724 1.169 1.723 1.169 2.826s-0.447 2.103-1.169 2.826l-6.121 6.121c-0.241 0.239-0.573 0.387-0.94 0.387-0.737 0-1.334-0.597-1.334-1.334 0-0.37 0.151-0.705 0.394-0.947l0-0 6.119-6.106z"></path>
</symbol>
<symbol id="icon-angle" viewBox="0 0 32 32">
<path d="M15.053 17.867c0.242 0.243 0.577 0.394 0.947 0.394s0.705-0.151 0.947-0.394l0-0 6.106-6.12c0.242-0.244 0.577-0.394 0.947-0.394 0.737 0 1.334 0.597 1.334 1.334 0 0.367-0.148 0.699-0.387 0.94l-6.12 6.12c-0.724 0.723-1.723 1.17-2.827 1.17s-2.103-0.447-2.827-1.17l-6.12-6.12c-0.239-0.241-0.387-0.573-0.387-0.94 0-0.737 0.597-1.334 1.334-1.334 0.37 0 0.705 0.151 0.947 0.394l0 0 6.106 6.12z"></path>
</symbol>
<symbol id="icon-arrow" viewBox="0 0 32 32">
<path stroke-linejoin="round" stroke-linecap="round" stroke-miterlimit="4" stroke-width="3.2" d="M5.333 16h21.333M26.666 16l-8-8M26.666 16l-8 8"></path>
</symbol>
<symbol id="icon-cart" viewBox="0 0 32 32">
<path d="M25.333 9.333h-4v-1.333c0-2.946-2.388-5.334-5.334-5.334s-5.334 2.388-5.334 5.334v0 1.333h-4c-0.736 0-1.333 0.597-1.333 1.333 0 0.001 0 0.001 0 0.002v-0 14.666c0 2.209 1.791 4 4 4v0h13.333c2.209 0 4-1.791 4-4v0-14.666c0-0.736-0.597-1.334-1.333-1.334h-0zM13.333 8c-0.001-0.019-0.001-0.042-0.001-0.065 0-1.473 1.194-2.667 2.667-2.667s2.667 1.194 2.667 2.667c0 0.023-0 0.046-0.001 0.069l0-0.003v1.333h-5.333v-1.333zM24 25.333c0 0 0 0.001 0 0.002 0 0.736-0.597 1.333-1.333 1.333-0.001 0-0.001 0-0.002 0h-13.333c-0.736 0-1.333-0.597-1.333-1.333 0-0.001 0-0.001 0-0.002v0-13.333h2.666v1.333c0 0.737 0.597 1.334 1.334 1.334s1.334-0.597 1.334-1.334v0-1.333h5.333v1.333c0 0.737 0.597 1.334 1.334 1.334s1.334-0.597 1.334-1.334v0-1.333h2.667v13.333z"></path>
</symbol>
<symbol id="icon-burger" viewBox="0 0 32 32">
<path stroke-linejoin="round" stroke-linecap="round" stroke-miterlimit="4" stroke-width="2.2857" d="M22.666 13.334h-18.666M28 8h-24M28 18.666h-24M22.666 24h-18.666"></path>
</symbol>
</defs>
</svg>
